<svg xmlns="http://www.w3.org/2000/svg" viewBox="0 0 390 620" fill="none">
  <path d="M37 105C112 65 151 134 91 193C37 246 63 305 137 282C226 254 203 139 287 150C358 159 351 253 287 281C221 310 216 416 281 458C327 487 351 499 358 526" stroke="#d9a1a7" stroke-width="2.2" stroke-linecap="round" stroke-dasharray="6 8" opacity=".75"/>
  <g transform="translate(12 48) scale(2.35)" stroke="#d9a1a7" stroke-width=".85" stroke-linecap="round" stroke-linejoin="round" opacity=".85"><path fill="#d9a1a7" d="M20 10c0 4.993-5.539 10.193-7.399 11.799a1 1 0 0 1-1.202 0C9.539 20.193 4 14.993 4 10a8 8 0 0 1 16 0"/><circle cx="12" cy="10" r="3" fill="#fffdfb"/></g>
</svg>
