<svg xmlns="http://www.w3.org/2000/svg" xmlns:xlink="http://www.w3.org/1999/xlink" width="189" zoomAndPan="magnify" viewBox="0 0 141.75 141.750002" height="189" preserveAspectRatio="xMidYMid meet" version="1.0"><defs><clipPath id="639ab2b492"><path d="M 29 0 L 113 0 L 113 141.5 L 29 141.5 Z M 29 0 " clip-rule="nonzero"/></clipPath><clipPath id="ba67d93ac1"><path d="M 0.714844 0 L 83.082031 0 L 83.082031 141.5 L 0.714844 141.5 Z M 0.714844 0 " clip-rule="nonzero"/></clipPath><clipPath id="1058e2fdce"><rect x="0" width="84" y="0" height="142"/></clipPath></defs><g clip-path="url(#639ab2b492)"><g transform="matrix(1, 0, 0, 1, 29, 0.000000000000003254)"><g clip-path="url(#1058e2fdce)"><g clip-path="url(#ba67d93ac1)"><path fill="#000000" d="M 82.949219 139.019531 C 81.632812 137.027344 79.820312 135.664062 78.207031 133.894531 C 74.050781 129.339844 70.160156 124.5625 67.34375 119.082031 L 63.410156 111.441406 C 66.390625 111.230469 66.375 105.042969 64.699219 104.207031 C 63.484375 103.597656 61.988281 103.847656 60.671875 103.542969 C 58.496094 99.992188 57.09375 96.179688 55.707031 92.242188 C 53.996094 87.378906 52.457031 82.667969 51.484375 77.585938 C 51.113281 75.652344 50.707031 73.847656 50.058594 71.96875 C 50.835938 71.644531 51.539062 71.710938 52.230469 71.476562 C 53.859375 70.925781 54.269531 66.667969 52.21875 66.066406 C 51.523438 65.863281 50.324219 66.429688 49.753906 65.800781 C 49.332031 64.878906 49.027344 63.726562 48.820312 62.660156 C 46.503906 50.691406 45.472656 42.714844 44.9375 30.46875 C 44.78125 26.90625 44.722656 23.535156 43.917969 20 C 45.015625 20.234375 45.839844 19.925781 46.132812 18.910156 C 46.414062 17.910156 46.378906 16.730469 45.882812 15.785156 C 45.640625 15.320312 45 15.433594 44.605469 15.171875 C 44.683594 14.078125 44.964844 12.40625 44.242188 11.460938 C 43.539062 10.542969 41.929688 10.875 40.921875 10.769531 C 40.53125 8.457031 41.277344 1.515625 40.515625 0.152344 C 40.378906 -0.0898438 39.890625 -0.00390625 39.769531 0.132812 C 39.644531 0.277344 39.421875 0.5625 39.40625 0.863281 C 39.238281 4.09375 39.308594 7.246094 39.3125 10.523438 L 36.78125 10.941406 C 36.152344 11.046875 35.613281 11.417969 35.585938 12.09375 L 35.46875 14.796875 C 33.65625 15.636719 33.589844 18.898438 34.003906 19.585938 C 34.386719 20.21875 35.234375 20.332031 35.953125 20.503906 L 34.972656 28.644531 L 33.578125 42.210938 L 32.546875 55.347656 L 31.359375 65.5625 C 28.949219 65.886719 26.746094 65.917969 26.660156 68.855469 C 26.632812 69.765625 26.761719 70.472656 27.375 71.195312 C 27.800781 71.699219 28.519531 71.867188 29.402344 71.949219 C 29.359375 73.597656 29.105469 75.105469 28.742188 76.703125 L 25.816406 89.496094 C 25.402344 91.304688 25.027344 92.976562 24.476562 94.742188 L 23.132812 99.035156 L 21.480469 103.734375 C 19.769531 103.851562 18.117188 103.917969 16.554688 104.402344 C 15.707031 104.667969 15.519531 105.070312 15.476562 105.914062 C 15.382812 107.746094 15.03125 109.59375 15.714844 111.347656 C 15.992188 112.0625 18.472656 111.292969 19.125 111.621094 L 15.457031 119.386719 C 13.476562 123.578125 7.964844 131.785156 4.824219 135.234375 C 3.402344 136.800781 1.949219 138.265625 0.800781 140.042969 C 0.605469 140.347656 0.785156 140.917969 0.9375 141.121094 C 1.191406 141.464844 4.234375 141.535156 4.664062 141.519531 L 16.464844 141.140625 C 17.214844 141.117188 17.925781 141.402344 18.675781 141.058594 L 22.789062 133.207031 L 25.320312 128.207031 C 26.625 125.632812 29.414062 123.96875 32.011719 122.769531 C 37.8125 120.089844 44.34375 120.246094 49.878906 123.332031 C 51.890625 124.457031 53.847656 125.546875 55.582031 127.105469 C 55.789062 127.292969 56.179688 127.234375 56.324219 127.523438 L 58.152344 131.183594 C 59.710938 134.296875 61.617188 137.128906 63.148438 140.265625 C 63.414062 140.804688 63.753906 141.253906 64.460938 141.132812 C 65.792969 140.90625 67.152344 140.867188 68.550781 140.855469 L 72.640625 140.832031 C 74.136719 140.820312 82.53125 140.96875 82.953125 140.03125 C 83.085938 139.738281 83.136719 139.300781 82.949219 139.015625 Z M 72.980469 130.042969 C 74.953125 132.90625 77.359375 135.164062 79.839844 137.753906 C 76.503906 136 73.621094 134.050781 70.230469 132.617188 C 70.96875 131.316406 71.449219 130.210938 71.96875 128.910156 C 72.320312 129.222656 72.679688 129.601562 72.980469 130.039062 Z M 69.195312 131.953125 C 68.917969 132.25 68.132812 131.628906 67.9375 131.421875 L 66.496094 129.121094 C 68.023438 128.71875 69.445312 128.507812 71.109375 128.476562 C 70.523438 129.679688 70.152344 130.925781 69.191406 131.953125 Z M 64.675781 129.453125 C 65.128906 129.574219 65.34375 130.171875 65.523438 130.609375 C 64.527344 130.488281 63.773438 130.265625 62.964844 129.785156 C 63.492188 129.621094 64.066406 129.289062 64.675781 129.453125 Z M 60.164062 128.675781 C 60.605469 127.242188 61.386719 126.164062 62.175781 125.027344 L 63.914062 127.972656 Z M 64.015625 124.921875 L 69.789062 127.222656 C 68.417969 127.625 67.074219 127.648438 65.644531 127.792969 C 65.039062 126.792969 64.390625 126.015625 64.015625 124.921875 Z M 69.992188 126.101562 C 67.589844 125.421875 65.496094 124.234375 63.15625 123.121094 C 63.035156 122.394531 63.5 121.960938 63.777344 121.421875 L 65.722656 119.101562 Z M 62.171875 121.480469 C 61.523438 120.484375 61.203125 119.691406 60.734375 118.546875 L 64.78125 118.355469 C 63.910156 119.5 62.871094 120.148438 62.171875 121.480469 Z M 64.25 105.003906 C 65.035156 105.679688 64.742188 109.410156 63.753906 110.15625 C 63.175781 110.152344 62.734375 110.199219 62.128906 110.117188 L 61.984375 104.753906 C 62.6875 104.835938 63.695312 104.527344 64.246094 105.003906 Z M 62.214844 111.359375 C 62.046875 111.292969 64.332031 116.25 64.722656 117 C 63.757812 117.203125 62.785156 116.933594 61.777344 116.976562 L 60.039062 117.054688 L 58.191406 113.125 C 57.921875 112.554688 57.730469 112.023438 57.648438 111.417969 C 58.667969 111.621094 61.785156 111.1875 62.214844 111.359375 Z M 23.636719 117.257812 C 24.347656 115.175781 25.320312 113.59375 25.5 111.375 L 30.46875 111.484375 L 29.640625 114.804688 C 29.191406 115.5625 28.921875 116.347656 28.515625 117.234375 C 26.828125 117.449219 25.296875 117.292969 23.636719 117.257812 Z M 26.914062 119.1875 L 21.796875 122.042969 C 22.085938 120.949219 22.4375 119.882812 23.035156 118.976562 C 23.253906 118.660156 26.289062 118.925781 26.914062 119.1875 Z M 29.636719 98.234375 L 33.410156 102.925781 C 31.546875 103.199219 29.894531 103.199219 28.136719 103.1875 Z M 28.929688 95.703125 C 28.074219 94.5625 27.363281 93.539062 26.722656 92.246094 C 27.675781 92.160156 28.472656 92.417969 29.652344 92.542969 C 29.484375 93.726562 29.273438 94.648438 28.933594 95.703125 Z M 31.8125 86.75 L 34.503906 91.265625 C 33.339844 91.578125 32.222656 91.457031 30.976562 91.503906 Z M 31.304688 82.796875 L 29.578125 79.3125 C 30.441406 79.421875 30.925781 79.476562 32.003906 79.488281 C 31.792969 80.6875 31.703125 81.742188 31.304688 82.796875 Z M 36.960938 20.457031 C 37.878906 20.425781 38.46875 20.332031 39.398438 20.222656 C 39.023438 23.03125 39.253906 25.5625 39.054688 28.535156 C 38.300781 27.625 37.222656 26.660156 36.71875 25.554688 C 36.476562 23.90625 37.007812 22.1875 36.960938 20.457031 Z M 39.558594 56.347656 L 36.660156 53.960938 C 35.957031 53.277344 35.386719 52.597656 34.742188 51.785156 L 39.265625 45.714844 Z M 39.824219 65.671875 C 37.566406 65.945312 35.480469 65.566406 33.117188 65.53125 C 35.492188 63.375 37.511719 61.253906 39.5 58.675781 C 39.664062 61.101562 39.445312 63.105469 39.828125 65.671875 Z M 43.640625 28.140625 L 43.746094 33.75 C 42.527344 32.828125 41.605469 31.71875 40.507812 30.589844 C 41.644531 28.894531 42.515625 27.191406 43.480469 25.226562 C 43.730469 26.160156 43.535156 27.125 43.640625 28.140625 Z M 40.484375 28.441406 L 40.285156 20.210938 L 43.019531 20.039062 L 43.390625 23.027344 C 42.480469 24.914062 41.605469 26.628906 40.484375 28.445312 Z M 41.507812 66.75 C 41.722656 68.105469 41.738281 69.351562 41.820312 70.9375 C 40.628906 71.019531 39.582031 70.992188 38.421875 70.945312 L 38.074219 66.679688 Z M 51.121094 103.171875 C 50.71875 102.480469 50.101562 101.320312 49.851562 100.496094 C 50.0625 99.125 50.578125 97.894531 51.21875 96.449219 C 52.296875 98.851562 52.988281 101.085938 54.214844 103.324219 C 53.164062 103.40625 52.117188 103.527344 51.125 103.171875 Z M 56.824219 104.75 L 56.753906 109.949219 L 53.507812 109.976562 C 53.28125 108.261719 53.066406 106.601562 53.0625 104.75 L 56.828125 104.75 Z M 51.949219 109.902344 L 48.160156 109.964844 C 47.824219 108.125 47.578125 106.351562 47.640625 104.335938 L 51.960938 104.742188 C 51.898438 106.464844 51.8125 108.046875 51.949219 109.898438 Z M 49.21875 98.757812 C 48.511719 97.0625 47.828125 95.582031 47.425781 93.765625 L 50.1875 95.84375 L 49.222656 98.757812 Z M 50.710938 90.882812 C 51.300781 90.617188 51.796875 90.503906 52.425781 90.386719 C 52.113281 91.175781 51.867188 91.910156 51.347656 92.746094 C 51 92.15625 50.773438 91.582031 50.710938 90.882812 Z M 50.332031 89.902344 C 50.015625 89.003906 49.792969 88.203125 49.566406 87.222656 L 52.636719 89.207031 C 51.949219 89.507812 51.234375 89.707031 50.332031 89.902344 Z M 49.710938 91.023438 L 50.660156 93.859375 C 50.765625 94.179688 50.824219 94.5 50.523438 94.941406 C 49.828125 94.421875 46.492188 92.226562 46.574219 91.503906 Z M 46.269531 90.492188 C 46.460938 89.367188 47.089844 88.496094 47.59375 87.542969 C 47.925781 87.089844 48.050781 86.59375 48.332031 86.011719 L 49.425781 90 C 48.355469 90.265625 47.546875 90.628906 46.269531 90.496094 Z M 45.835938 88.449219 C 45.230469 85.980469 44.503906 83.746094 44.191406 81.171875 C 45.386719 82.453125 46.09375 83.851562 47.53125 84.984375 C 47.125 86.335938 46.574219 87.289062 45.835938 88.449219 Z M 47.746094 79.222656 C 48.464844 79.082031 48.996094 78.996094 50.035156 79.160156 L 48.507812 82.761719 C 48.160156 81.515625 47.871094 80.429688 47.746094 79.222656 Z M 47.804688 83.851562 C 46.3125 82.519531 45.25 80.988281 44.003906 79.449219 C 44.980469 79.167969 45.828125 79.285156 46.859375 79.289062 Z M 43.683594 78.332031 C 43.21875 76.222656 42.808594 74.1875 43 71.972656 C 43.777344 71.921875 44.507812 71.90625 45.339844 71.980469 L 46.449219 78.019531 C 45.636719 78.25 44.777344 78.167969 43.683594 78.332031 Z M 45.535156 70.753906 C 44.578125 70.992188 43.769531 70.925781 42.84375 70.925781 L 42.378906 66.75 L 45.113281 66.753906 C 45.683594 67.984375 45.648438 69.226562 45.535156 70.753906 Z M 42.488281 79.460938 C 42.949219 82.484375 43.679688 85.351562 44.535156 88.300781 C 44.875 89.464844 44.992188 90.632812 45.390625 91.785156 L 47.132812 96.8125 C 47.539062 97.984375 48.136719 99.039062 48.488281 100.238281 C 48.777344 101.238281 49.226562 102.039062 49.734375 103.054688 L 43.597656 102.933594 C 41.78125 102.898438 40.019531 102.773438 38.214844 102.726562 C 37.152344 102.699219 36.207031 102.945312 35.039062 102.785156 L 35.871094 95.851562 L 38.085938 79.5625 Z M 34.453125 89.410156 L 32.511719 85.375 L 36.246094 82.308594 L 35.234375 90.230469 C 34.839844 90.101562 34.742188 89.746094 34.453125 89.410156 Z M 38.253906 78.511719 C 38.171875 77.464844 38.414062 76.492188 38.398438 75.417969 C 38.382812 74.238281 38.253906 73.160156 38.375 72.027344 C 39.511719 72.253906 40.621094 72.070312 41.761719 72.144531 C 41.769531 74.261719 41.855469 76.242188 42.335938 78.289062 Z M 37.257812 66.691406 L 37.417969 70.9375 L 34.3125 70.980469 L 34 66.582031 C 35.082031 66.503906 36.140625 66.605469 37.257812 66.691406 Z M 34.449219 72.195312 C 35.398438 72.105469 36.246094 72.125 37.199219 72.210938 L 36.753906 78.460938 C 35.671875 78.628906 34.679688 78.609375 33.464844 78.511719 C 34.25 76.410156 34.355469 74.382812 34.449219 72.195312 Z M 36.523438 79.6875 C 37.261719 80.195312 32.90625 83.519531 32.34375 83.980469 L 33.125 79.660156 L 36.519531 79.6875 Z M 34.835938 92.96875 L 33.746094 101.789062 L 30.285156 97.527344 C 30.726562 96.785156 31.488281 96.273438 32.175781 95.6875 C 33.167969 94.832031 33.953125 93.910156 34.835938 92.96875 Z M 33.964844 92.625 C 32.863281 94.136719 31.453125 95 30.128906 96.144531 L 30.839844 92.675781 C 31.914062 92.613281 32.851562 92.507812 33.964844 92.625 Z M 30.054688 104.527344 L 29.613281 110.0625 L 25.773438 109.96875 L 25.582031 104.761719 Z M 31.597656 111.523438 C 32.464844 111.433594 33.1875 111.484375 34.03125 111.507812 L 33.992188 115.578125 C 32.617188 115.890625 31.425781 116.335938 30.011719 116.847656 C 30.714844 115.074219 31.339844 113.4375 31.597656 111.523438 Z M 31.140625 110.15625 L 30.960938 104.589844 L 35.835938 104.273438 C 35.742188 106.234375 35.539062 108.121094 35.667969 110.144531 Z M 38.875 111.230469 L 39.101562 115.109375 C 37.871094 115.214844 36.847656 115.117188 35.492188 115.414062 L 35.136719 111.507812 C 36.363281 111.28125 37.484375 111.34375 38.875 111.230469 Z M 37.222656 110.074219 C 36.789062 107.949219 37.183594 106.324219 36.792969 104.171875 L 41.105469 104.1875 C 40.953125 105.992188 40.816406 107.617188 40.925781 109.382812 C 40.984375 110.359375 38.183594 109.738281 37.222656 110.074219 Z M 44.148438 111.117188 L 44.253906 115.140625 L 40.351562 114.972656 L 39.863281 111.144531 Z M 42.539062 109.773438 L 42.121094 104.179688 C 43.769531 104.304688 45.140625 104.40625 46.6875 104.359375 C 46.375 106.199219 46.457031 107.902344 46.496094 109.9375 L 42.539062 109.777344 Z M 49.171875 111.304688 C 49.546875 111.347656 49.835938 111.976562 49.960938 112.34375 L 50.992188 115.398438 C 49.15625 115.21875 47.621094 115.101562 45.796875 115.183594 L 45.144531 111.148438 C 46.546875 111.210938 47.808594 111.136719 49.167969 111.304688 Z M 50.742188 111.207031 L 56.535156 111.320312 C 56.625 112.253906 56.808594 113.042969 57.144531 113.851562 L 58.453125 117.019531 C 56.664062 117.164062 55.046875 117.410156 53.285156 117.222656 L 51.898438 114.230469 C 51.449219 113.269531 51.242188 112.308594 50.742188 111.207031 Z M 59.132812 118.597656 C 59.546875 119.667969 60.167969 120.53125 60.394531 121.761719 L 54.957031 119.113281 C 56.3125 118.648438 57.628906 118.691406 59.132812 118.597656 Z M 61.007812 104.785156 L 60.636719 110.082031 C 59.847656 110.289062 59.085938 110.226562 58.28125 110.128906 L 57.921875 104.785156 C 59.011719 104.726562 59.902344 104.71875 61.007812 104.785156 Z M 59.03125 103.535156 C 57.628906 103.660156 56.613281 103.597656 55.320312 103.441406 C 54.441406 101.589844 53.433594 99.921875 52.847656 97.738281 L 57.347656 100.289062 C 58.152344 101.179688 58.390625 102.589844 59.027344 103.535156 Z M 55.613281 95.996094 C 55.957031 96.890625 56.464844 97.597656 56.671875 98.714844 C 55.152344 97.921875 53.609375 97.25 52.3125 96.054688 C 51.097656 94.929688 52.984375 92.078125 53.550781 90.617188 Z M 52.742188 88.128906 C 51.226562 87.398438 50.113281 86.363281 49.054688 85.203125 C 48.84375 84.976562 49.003906 84.402344 49.097656 84.175781 L 50.6875 80.386719 C 51.300781 83.082031 51.820312 85.515625 52.742188 88.128906 Z M 50.175781 77.917969 C 49.359375 78.222656 48.546875 77.992188 47.585938 78.074219 L 46.4375 71.976562 L 49.035156 71.898438 Z M 51.738281 67.089844 C 52.617188 67.914062 52.332031 69.292969 52.039062 70.414062 C 51.257812 70.597656 50.71875 70.726562 50.007812 70.796875 C 49.945312 69.433594 50.015625 68.25 49.683594 66.929688 C 50.28125 66.964844 51.265625 66.648438 51.742188 67.09375 Z M 48.90625 67 L 49.039062 70.660156 C 48.253906 70.953125 47.398438 70.820312 46.535156 70.800781 C 46.558594 69.34375 46.546875 68.089844 45.957031 66.765625 C 46.988281 66.773438 47.929688 66.835938 48.910156 67 Z M 45.90625 65.828125 L 41.253906 65.761719 C 40.902344 63.671875 40.910156 61.652344 41 59.683594 C 41.707031 60.179688 42.109375 60.863281 42.757812 61.386719 L 48.402344 65.925781 C 47.546875 66.066406 46.765625 65.839844 45.90625 65.824219 Z M 47.703125 63.890625 C 46.035156 62.703125 44.582031 61.539062 43.160156 60.207031 C 42.527344 59.613281 42.0625 58.847656 41.398438 58.3125 C 40.691406 57.734375 40.757812 56.984375 41.277344 56.328125 L 45.457031 51.101562 Z M 40.679688 46.980469 L 44.589844 50.445312 L 40.914062 55.058594 L 40.679688 46.984375 Z M 45.160156 49.21875 L 40.960938 45.328125 C 40.472656 44.84375 40.371094 44.183594 40.824219 43.730469 L 44.15625 39.671875 Z M 40.507812 42.210938 L 40.488281 31.957031 L 43.792969 35.609375 C 44.875 38.640625 42.199219 40.074219 40.507812 42.210938 Z M 36.875 12.160156 C 38.109375 11.546875 39.425781 11.644531 40.808594 11.832031 C 41.484375 11.921875 42.597656 11.65625 43.082031 12.222656 C 43.429688 13.097656 43.140625 14.21875 43.347656 15.238281 C 40.96875 15.179688 39.023438 14.949219 36.777344 15.054688 C 36.734375 14.023438 36.769531 13.140625 36.871094 12.164062 Z M 35.234375 18.921875 C 34.671875 18.179688 35.167969 16.984375 35.535156 16.199219 C 37.867188 16.0625 40.066406 16.246094 42.414062 16.375 C 43.136719 16.417969 43.824219 16.289062 44.507812 16.617188 C 44.769531 17.292969 44.789062 17.976562 44.554688 18.835938 L 37.566406 19.261719 C 36.882812 19.300781 35.667969 19.496094 35.234375 18.921875 Z M 36.523438 27.1875 L 39.089844 30.5 C 38.132812 32.183594 36.980469 33.558594 35.835938 35.148438 C 35.894531 32.3125 36.246094 29.820312 36.519531 27.1875 Z M 35.984375 36.820312 L 39.121094 32.351562 L 39.132812 43.191406 L 35.542969 39.085938 C 35.207031 38.164062 35.503906 37.5 35.984375 36.816406 Z M 35.226562 40.417969 L 38.613281 44.617188 L 34.5 50.578125 Z M 34.34375 52.644531 C 35.925781 54.996094 37.214844 55.40625 38.972656 57.613281 C 37.605469 59.644531 36.128906 61.359375 34.511719 63.082031 C 34.074219 63.550781 33.667969 64.011719 32.90625 64.074219 Z M 30.238281 66.75 C 31.238281 66.527344 32.128906 66.496094 33.132812 66.566406 L 33.363281 70.851562 C 32.527344 71.128906 31.597656 70.96875 30.597656 70.894531 C 30.277344 69.519531 30.152344 68.1875 30.238281 66.75 Z M 30.632812 72.171875 C 31.628906 72.113281 32.503906 72.128906 33.46875 72.1875 C 33.230469 74.324219 32.765625 76.3125 32.234375 78.433594 C 31.476562 78.558594 30.769531 78.480469 29.878906 78.34375 C 30.296875 76.3125 30.652344 74.324219 30.636719 72.171875 Z M 28.089844 69.96875 C 27.746094 69.203125 27.78125 68.191406 28.175781 67.390625 C 28.371094 66.996094 29.015625 66.921875 29.433594 66.910156 C 29.476562 68.207031 29.335938 69.328125 29.667969 70.703125 C 28.84375 71.015625 28.378906 70.613281 28.085938 69.96875 Z M 29.109375 80.375 L 31.03125 85.03125 L 27.332031 88.675781 Z M 30.40625 87.296875 L 29.871094 91.429688 L 26.707031 91.128906 C 27.855469 89.65625 29.046875 88.515625 30.40625 87.296875 Z M 24.90625 97.917969 C 25.410156 96.386719 25.726562 94.894531 26.371094 93.265625 C 27.109375 94.507812 27.699219 95.648438 28.554688 96.746094 C 28.789062 97.050781 28.621094 97.488281 28.261719 97.703125 L 23.835938 101.171875 Z M 23.441406 102.820312 L 27.945312 99.363281 L 26.894531 103.316406 C 25.550781 103.484375 24.363281 103.273438 23.0625 103.621094 C 22.984375 103.191406 23.207031 103 23.441406 102.824219 Z M 21.230469 105.21875 C 22.34375 105.042969 23.386719 104.878906 24.648438 104.929688 L 24.320312 109.882812 C 23.375 110.117188 22.507812 110.039062 21.417969 110.125 C 21.238281 108.527344 21.214844 107.007812 21.230469 105.21875 Z M 17.441406 110.199219 C 16.472656 108.933594 16.957031 107.058594 17.34375 105.621094 C 18.261719 105.328125 19.148438 105.289062 20.214844 105.316406 L 20.105469 110.09375 Z M 19.601562 113.265625 C 19.835938 112.703125 20.011719 112.195312 20.011719 111.523438 L 24.585938 111.386719 C 24 113.429688 23.089844 115.257812 22.222656 117.285156 L 17.75 117.636719 Z M 21.5 118.859375 C 21.085938 119.921875 20.792969 120.824219 20.128906 121.847656 C 19.417969 120.683594 18.5625 119.964844 17.695312 118.902344 L 21.496094 118.859375 Z M 17.691406 129.886719 C 18.238281 129.679688 18.785156 130.007812 19.386719 130.117188 C 18.582031 130.660156 17.851562 130.839844 16.945312 131.109375 C 17.082031 130.640625 17.289062 130.039062 17.691406 129.886719 Z M 16.898438 128.289062 C 15.484375 128.289062 14.339844 128.136719 12.972656 127.972656 L 18.410156 125.347656 C 18.035156 126.484375 17.410156 127.203125 16.898438 128.289062 Z M 18.535156 128.429688 C 18.839844 127.285156 19.550781 126.515625 20.070312 125.402344 C 20.882812 126.398438 21.4375 127.441406 21.941406 128.828125 C 20.734375 128.90625 19.753906 128.566406 18.535156 128.429688 Z M 16.796875 119.699219 L 18.550781 121.769531 C 18.886719 122.285156 19.261719 122.777344 19.191406 123.558594 C 17.058594 124.785156 15.089844 125.945312 12.816406 126.8125 C 14.199219 124.335938 15.652344 122.25 16.800781 119.699219 Z M 16.078125 129.632812 C 15.285156 130.820312 14.839844 132.445312 13.5625 132.671875 C 12.789062 131.644531 12.261719 130.558594 11.785156 129.265625 C 13.296875 129.128906 14.613281 129.335938 16.078125 129.632812 Z M 10.847656 129.65625 L 12.496094 133.222656 L 9.511719 134.925781 C 7.4375 136.109375 5.765625 137.542969 3.621094 138.664062 C 6.347656 135.789062 8.675781 132.980469 10.851562 129.660156 Z M 3.648438 140.015625 C 4.878906 139.0625 6.136719 138.375 7.414062 137.5625 C 9.300781 136.363281 11.128906 135.117188 13.285156 134.335938 L 10.050781 139.789062 C 8.609375 139.863281 4.710938 140.441406 3.652344 140.015625 Z M 11.75 139.714844 C 12.503906 138.289062 13.277344 137.222656 14.175781 135.875 L 16.65625 139.414062 Z M 18.039062 139.023438 C 16.898438 137.628906 15.804688 136.441406 14.992188 134.8125 C 14.726562 134.285156 15.460938 133.203125 15.960938 133 L 19.546875 131.550781 C 20.53125 131.152344 21.371094 130.53125 22.585938 130.617188 Z M 23.523438 128.484375 C 22.617188 126.988281 22.082031 125.65625 21.167969 124.386719 C 21.054688 124.230469 21.097656 123.949219 21.144531 123.835938 C 21.136719 123.859375 26.230469 120.808594 26.941406 120.75 C 25.859375 123.433594 24.964844 125.964844 23.523438 128.484375 Z M 31.382812 121.832031 C 29.652344 122.488281 28.433594 123.550781 26.917969 124.648438 L 29.554688 117.992188 C 30.40625 117.621094 31.175781 117.339844 32.160156 117.042969 C 31.789062 118.738281 31.28125 120.15625 31.378906 121.828125 Z M 37.339844 119.933594 C 35.777344 120.21875 34.398438 120.59375 32.867188 121.183594 L 33.132812 116.796875 C 34.628906 116.375 36.027344 116.28125 37.550781 116.195312 Z M 42.960938 119.871094 C 41.363281 119.605469 40.152344 119.707031 38.714844 119.824219 C 38.722656 118.503906 38.707031 117.410156 38.492188 116.15625 C 40.078125 116.078125 41.4375 116.003906 43.011719 116.140625 Z M 44.484375 120.140625 L 44.105469 116.144531 C 45.085938 116.078125 45.949219 116.210938 46.832031 116.195312 C 47.453125 116.183594 47.574219 116.558594 47.734375 117.132812 C 48.136719 118.597656 48.777344 119.804688 48.835938 121.371094 C 47.394531 120.785156 46.0625 120.433594 44.484375 120.136719 Z M 50.519531 122.320312 C 50.132812 120.234375 49.46875 118.335938 48.574219 116.375 C 49.714844 116.246094 50.640625 116.503906 51.695312 116.832031 L 53.957031 122.140625 L 55.050781 124.945312 C 53.476562 123.980469 52.132812 123.066406 50.519531 122.320312 Z M 58.363281 128.203125 C 57.046875 125.78125 55.960938 123.363281 54.957031 120.703125 C 57.347656 121.5 58.832031 122.425781 61.257812 123.601562 C 60.375 125.039062 59.578125 126.285156 58.890625 127.71875 C 58.777344 127.949219 58.554688 128.1875 58.359375 128.203125 Z M 64.3125 138.800781 L 59.4375 130.414062 C 60.726562 130.265625 61.710938 130.917969 62.824219 131.289062 L 66.589844 132.539062 C 67.285156 132.769531 67.515625 133.632812 67.773438 134.269531 C 66.71875 135.832031 65.714844 137.246094 64.3125 138.800781 Z M 65.6875 139.214844 L 68.460938 135.386719 L 71.125 139.191406 C 68.988281 139.191406 67.632812 139.308594 65.6875 139.214844 Z M 72.898438 139.164062 L 69.429688 133.695312 C 71.597656 134.511719 73.46875 135.457031 75.34375 136.535156 C 76.914062 137.445312 78.488281 138.164062 79.984375 139.222656 C 77.847656 139.410156 74.917969 139.371094 72.902344 139.164062 Z M 72.898438 139.164062 " fill-opacity="1" fill-rule="nonzero"/></g><path fill="#000000" d="M 19.960938 33.09375 C 19.714844 32.492188 18.03125 32.9375 17.289062 32.753906 C 15.359375 32.265625 14.273438 30.449219 14.1875 28.511719 C 14.15625 27.792969 14.136719 26.890625 13.492188 26.492188 C 13.011719 26.191406 12.59375 26.90625 12.613281 27.382812 C 12.699219 29.242188 12.457031 31.039062 11.46875 32.632812 C 10.597656 34.042969 8.683594 33.6875 8.523438 34.242188 C 8.28125 35.085938 10.230469 35.265625 10.59375 35.359375 C 12.359375 35.828125 13.140625 37.585938 12.984375 39.335938 C 12.933594 39.9375 12.84375 40.570312 13.265625 41.082031 C 13.992188 40.484375 14.167969 39.613281 14.167969 38.753906 C 14.171875 36.84375 15.15625 35.113281 16.914062 34.382812 C 18.957031 33.535156 20.292969 33.90625 19.957031 33.09375 Z M 13.527344 36.101562 L 11.4375 34.417969 C 12.585938 33.476562 12.976562 32.203125 13.558594 30.699219 C 14.148438 32.003906 14.855469 32.84375 16.132812 33.40625 C 15.152344 34.234375 14.257812 34.820312 13.527344 36.101562 Z M 10.710938 22.835938 C 11.089844 21.738281 10.894531 20.34375 9.789062 19.722656 C 8.777344 19.15625 7.332031 19.414062 6.367188 19.96875 C 5.609375 20.40625 4.988281 22.542969 5.90625 23.691406 C 6.285156 24.167969 6.957031 24.617188 7.878906 24.65625 C 9.222656 24.710938 10.351562 23.867188 10.710938 22.835938 Z M 8.234375 23.230469 C 7.65625 23.214844 7.210938 22.800781 7.15625 22.140625 C 7.121094 21.75 7.164062 21.386719 7.367188 21.101562 C 7.65625 20.695312 8.90625 20.617188 9.285156 21.128906 C 9.683594 21.667969 9.199219 23.253906 8.234375 23.230469 Z M 8.234375 23.230469 " fill-opacity="1" fill-rule="nonzero"/><path fill="#000000" d="M 76.929688 27.902344 C 75.847656 27.671875 74.757812 27.429688 74.09375 26.527344 C 71.992188 23.664062 73.855469 22.828125 73.027344 20.359375 C 70.542969 22.328125 72.828125 24.5625 69.476562 27.167969 C 67.234375 28.90625 65.070312 28 64.296875 28.621094 C 64.1875 28.710938 64.050781 29.003906 64.234375 29.171875 C 65.46875 30.300781 68.640625 28.417969 70.3125 32.988281 C 70.925781 34.664062 70.246094 38.160156 71.726562 37.777344 C 73.09375 37.421875 71.585938 33.707031 74.585938 30.308594 C 75.378906 29.410156 76.773438 29.753906 77.695312 29.296875 C 78.277344 29.003906 77.457031 28.019531 76.921875 27.90625 Z M 71.640625 32.710938 C 70.992188 31.175781 70.289062 30.011719 68.789062 29.152344 C 70.210938 28.289062 71.320312 27.570312 72.21875 26.265625 C 73.011719 27.148438 73.585938 27.816406 74.488281 28.554688 C 73.050781 29.589844 72.414062 30.957031 71.640625 32.710938 Z M 69.503906 44.839844 C 69.875 46.46875 69 47.78125 67.488281 47.984375 C 66.148438 48.164062 64.828125 47.0625 64.933594 45.628906 C 65.027344 44.34375 65.582031 43.609375 66.863281 43.425781 C 67.929688 43.269531 69.214844 43.578125 69.503906 44.839844 Z M 64.058594 37.089844 C 63.832031 38.046875 61.925781 37.234375 61.070312 37.828125 C 60.789062 39.089844 61.480469 40.960938 60.628906 41.355469 C 59.859375 41.710938 59.792969 38.734375 59.828125 38.140625 C 58.835938 38.183594 57.929688 38.585938 57.003906 38.289062 C 56.769531 38.214844 56.726562 37.898438 56.851562 37.777344 C 56.980469 37.660156 57.105469 37.453125 57.332031 37.390625 L 59.800781 36.710938 L 60.066406 32.597656 C 60.085938 32.316406 60.378906 32.1875 60.53125 32.1875 C 61.46875 32.167969 60.761719 35.351562 61.035156 36.417969 L 63.5 36.488281 C 63.839844 36.496094 64.121094 36.839844 64.0625 37.089844 Z M 64.058594 37.089844 " fill-opacity="1" fill-rule="nonzero"/></g></g></g></svg>